<svg width="128" height="128" viewBox="0 0 128 128" fill="none" xmlns="http://www.w3.org/2000/svg"><path fill="#161616" d="M0 0h128v128H0z"/><path d="M37.796 81.477q-4.023 0-7.143-1.415-3.101-1.43-4.892-3.937-1.772-2.505-1.806-5.761h9.204q.051 1.806 1.398 2.88 1.363 1.074 3.238 1.074 1.45 0 2.557-.614a4.5 4.5 0 0 0 1.739-1.772q.63-1.142.614-2.66.015-1.533-.614-2.658-.63-1.143-1.739-1.756-1.107-.63-2.556-.63-1.5 0-2.779.732a4.38 4.38 0 0 0-1.858 1.995l-8.318-1.637 1.363-19.227H49.66v7.568H33.977l-.681 7.705h.204q.818-1.586 2.83-2.625 2.01-1.057 4.67-1.057 3.12 0 5.557 1.449 2.454 1.448 3.87 4.005 1.43 2.54 1.414 5.864.017 3.647-1.739 6.477-1.739 2.813-4.892 4.415-3.153 1.585-7.415 1.585m35.313-37.022L61.86 86.25h-7.977l11.25-41.795zm16.236 1.159q3.05 0 5.779.971a12.9 12.9 0 0 1 4.823 3.017q2.115 2.062 3.307 5.387 1.21 3.307 1.228 8.011.017 4.296-1.074 7.722-1.074 3.409-3.086 5.812a13.35 13.35 0 0 1-4.806 3.682q-2.796 1.26-6.239 1.261-3.87 0-6.801-1.483t-4.67-3.988a11.5 11.5 0 0 1-2.029-5.574h9.34q.342 1.586 1.5 2.301 1.16.699 2.66.699 3 0 4.38-2.591 1.399-2.608 1.415-6.955h-.204a7.15 7.15 0 0 1-2.011 2.745q-1.347 1.142-3.137 1.755-1.79.614-3.784.614-3.153 0-5.523-1.415a10 10 0 0 1-3.698-3.903q-1.33-2.49-1.347-5.66-.017-3.715 1.756-6.51 1.771-2.796 4.926-4.347 3.153-1.551 7.295-1.551m.068 7.159q-1.415 0-2.522.647a4.7 4.7 0 0 0-1.722 1.756q-.614 1.108-.597 2.506t.631 2.505a4.77 4.77 0 0 0 1.705 1.756q1.09.648 2.505.648 1.04 0 1.927-.358a4.6 4.6 0 0 0 1.534-1.04 4.8 4.8 0 0 0 1.022-1.568q.376-.903.358-1.943-.016-1.398-.648-2.506a4.7 4.7 0 0 0-1.721-1.756q-1.09-.647-2.472-.647" fill="#FC0"/></svg>