<svg width="128" height="128" viewBox="0 0 128 128" fill="none" xmlns="http://www.w3.org/2000/svg">
<rect x="1" y="1" width="126" height="126" rx="15" fill="#161616"/>
<path d="M44.2216 77.358C42.2102 77.358 40.4247 77.0043 38.8651 76.2969C37.3139 75.581 36.0909 74.5966 35.196 73.3438C34.3097 72.0909 33.858 70.6506 33.8409 69.0227H40.7443C40.7699 69.9261 41.1193 70.6463 41.7926 71.1832C42.4744 71.7202 43.2841 71.9886 44.2216 71.9886C44.946 71.9886 45.5852 71.8352 46.1392 71.5284C46.6932 71.2131 47.1278 70.7699 47.4432 70.1989C47.7585 69.6278 47.9119 68.9631 47.9034 68.2045C47.9119 67.4375 47.7585 66.7727 47.4432 66.2102C47.1278 65.6392 46.6932 65.2003 46.1392 64.8935C45.5852 64.5781 44.946 64.4205 44.2216 64.4205C43.4716 64.4205 42.777 64.6037 42.1378 64.9702C41.5071 65.3281 41.0426 65.8267 40.7443 66.4659L34.5057 65.2386L35.5284 50.8182H53.1193V56.4943H41.358L40.8466 62.2727H41C41.4091 61.4801 42.1165 60.8239 43.1222 60.304C44.1278 59.7756 45.2955 59.5114 46.625 59.5114C48.1847 59.5114 49.5739 59.8736 50.7926 60.598C52.0199 61.3224 52.9872 62.3239 53.6946 63.6023C54.4105 64.8722 54.7642 66.3381 54.7557 68C54.7642 69.8239 54.3295 71.4432 53.4517 72.858C52.5824 74.2642 51.3594 75.3679 49.7827 76.169C48.206 76.9616 46.3523 77.358 44.2216 77.358ZM70.707 49.5909L62.2695 80.9375H56.2866L64.7241 49.5909H70.707ZM82.8839 50.4602C84.4094 50.4602 85.854 50.7031 87.2177 51.1889C88.5813 51.6662 89.7873 52.4205 90.8356 53.4517C91.8924 54.483 92.7191 55.8295 93.3157 57.4915C93.9208 59.1449 94.2276 61.1477 94.2362 63.5C94.2447 65.6477 93.9762 67.5781 93.4308 69.2912C92.8938 70.9957 92.1225 72.4489 91.1168 73.6506C90.1197 74.8523 88.918 75.7727 87.5117 76.4119C86.114 77.0426 84.5543 77.358 82.8327 77.358C80.8981 77.358 79.1978 76.9872 77.7319 76.2457C76.266 75.5043 75.0984 74.5071 74.229 73.2543C73.3597 72.0014 72.8526 70.608 72.7077 69.0739H79.7134C79.8839 69.8665 80.2589 70.4418 80.8384 70.7997C81.418 71.1491 82.0827 71.3239 82.8327 71.3239C84.3327 71.3239 85.4279 70.6761 86.1183 69.3807C86.8171 68.0767 87.1708 66.3381 87.1793 64.1648H87.0259C86.6935 64.9659 86.1907 65.652 85.5174 66.223C84.8441 66.794 84.06 67.233 83.1651 67.5398C82.2702 67.8466 81.3242 68 80.3271 68C78.7504 68 77.3697 67.6463 76.185 66.9389C75.0004 66.223 74.0756 65.2472 73.4109 64.0114C72.7461 62.767 72.4094 61.3523 72.4009 59.767C72.3924 57.9091 72.8313 56.2812 73.7177 54.8835C74.604 53.4858 75.8356 52.3991 77.4123 51.6236C78.989 50.848 80.8129 50.4602 82.8839 50.4602ZM82.935 55.8295C82.2276 55.8295 81.5969 55.9915 81.043 56.3153C80.4975 56.6392 80.0671 57.0781 79.7518 57.6321C79.445 58.1861 79.2958 58.8125 79.3043 59.5114C79.3129 60.2102 79.4705 60.8366 79.7773 61.3906C80.0927 61.9446 80.5188 62.3835 81.0558 62.7074C81.6012 63.0312 82.2276 63.1932 82.935 63.1932C83.4549 63.1932 83.9364 63.1037 84.3796 62.9247C84.8228 62.7372 85.2063 62.4773 85.5302 62.1449C85.8626 61.804 86.1183 61.4119 86.2972 60.9688C86.4847 60.517 86.5742 60.0312 86.5657 59.5114C86.5572 58.8125 86.3952 58.1861 86.0799 57.6321C85.7646 57.0781 85.3342 56.6392 84.7887 56.3153C84.2433 55.9915 83.6254 55.8295 82.935 55.8295Z" fill="#FFCC00"/>
<rect x="1" y="1" width="126" height="126" rx="15" stroke="#343434" stroke-width="2"/>
</svg>
