<svg viewBox="0 0 154 148" fill="none" xmlns="http://www.w3.org/2000/svg"><style>text{font-size:8px;font-weight:900;text-anchor:middle;dominant-baseline:middle}.a{fill:rgba(0,0,0,.05)}.b{fill:#00c9ff}</style><path fill="#fff" d="M0 0h154v148H0z"/><text class="a" x="11" y="14">O</text><text class="a" x="17" y="14">N</text><text class="a" x="23" y="14">\</text><text class="a" x="29" y="14">\</text><text class="a" x="35" y="14">\</text><text class="a" x="41" y="14">\</text><text class="a" x="47" y="14">\</text><text class="a" x="53" y="14">\</text><text class="a" x="59" y="14">\</text><text class="a" x="65" y="14">\</text><text class="a" x="71" y="14">\</text><text class="a" x="77" y="14">\</text><text class="a" x="83" y="14">\</text><text class="a" x="89" y="14">\</text><text class="a" x="95" y="14">\</text><text class="a" x="101" y="14">\</text><text class="a" x="107" y="14">\</text><text class="a" x="113" y="14">\</text><text class="a" x="119" y="14">\</text><text class="a" x="125" y="14">\</text><text class="a" x="131" y="14">\</text><text class="a" x="137" y="14">\</text><text class="a" x="143" y="14">\</text><text class="a" x="11" y="26">\</text><text class="a" x="17" y="26">\</text><text class="a" x="23" y="26">\</text><text class="a" x="29" y="26">\</text><text class="a" x="35" y="26">\</text><text class="a" x="41" y="26">\</text><text class="a" x="47" y="26">\</text><text class="a" x="53" y="26">\</text><text class="a" x="59" y="26">\</text><text class="a" x="65" y="26">\</text><text class="a" x="71" y="26">\</text><text class="a" x="77" y="26">\</text><text class="a" x="83" y="26">\</text><text class="a" x="89" y="26">\</text><text class="a" x="95" y="26">\</text><text class="a" x="101" y="26">\</text><text class="a" x="107" y="26">\</text><text class="a" x="113" y="26">\</text><text class="a" x="119" y="26">\</text><text class="a" x="125" y="26">\</text><text class="a" x="131" y="26">\</text><text class="a" x="137" y="26">\</text><text class="a" x="143" y="26">\</text><text class="a" x="11" y="38">\</text><text class="a" x="17" y="38">\</text><text class="a" x="23" y="38">\</text><text class="a" x="29" y="38">\</text><text class="a" x="35" y="38">\</text><text class="a" x="41" y="38">\</text><text class="a" x="47" y="38">\</text><text class="a" x="53" y="38">\</text><text class="a" x="59" y="38">\</text><text class="a" x="65" y="38">\</text><text class="a" x="71" y="38">\</text><text class="a" x="77" y="38">\</text><text class="a" x="83" y="38">\</text><text class="a" x="89" y="38">\</text><text class="a" x="95" y="38">\</text><text class="a" x="101" y="38">\</text><text class="a" x="107" y="38">\</text><text class="a" x="113" y="38">\</text><text class="a" x="119" y="38">\</text><text class="a" x="125" y="38">\</text><text class="a" x="131" y="38">\</text><text class="a" x="137" y="38">\</text><text class="a" x="143" y="38">\</text><text class="a" x="11" y="50">\</text><text class="a" x="17" y="50">\</text><text class="a" x="23" y="50">\</text><text class="a" x="29" y="50">\</text><text class="a" x="35" y="50">\</text><text class="a" x="41" y="50">\</text><text class="a" x="47" y="50">\</text><text class="a" x="53" y="50">\</text><text class="a" x="59" y="50">\</text><text class="a" x="65" y="50">\</text><text class="a" x="71" y="50">\</text><text class="a" x="77" y="50">\</text><text class="a" x="83" y="50">\</text><text class="a" x="89" y="50">\</text><text class="a" x="95" y="50">\</text><text class="a" x="101" y="50">\</text><text class="a" x="107" y="50">\</text><text class="a" x="113" y="50">\</text><text class="a" x="119" y="50">\</text><text class="a" x="125" y="50">\</text><text class="a" x="131" y="50">\</text><text class="a" x="137" y="50">\</text><text class="a" x="143" y="50">\</text><text class="a" x="11" y="62">\</text><text class="a" x="17" y="62">\</text><text class="a" x="23" y="62">\</text><text class="a" x="29" y="62">\</text><text class="a" x="35" y="62">\</text><text class="a" x="41" y="62">\</text><text class="a" x="47" y="62">\</text><text class="a" x="53" y="62">\</text><text class="a" x="59" y="62">\</text><text class="b" x="65" y="62">[</text><text class="b" x="71" y="62">=</text><text class="b" x="77" y="62">-</text><text class="b" x="83" y="62">=</text><text class="b" x="89" y="62">]</text><text class="a" x="95" y="62">\</text><text class="a" x="101" y="62">\</text><text class="a" x="107" y="62">\</text><text class="a" x="113" y="62">\</text><text class="a" x="119" y="62">\</text><text class="a" x="125" y="62">\</text><text class="a" x="131" y="62">\</text><text class="a" x="137" y="62">\</text><text class="a" x="143" y="62">\</text><text class="a" x="11" y="74">\</text><text class="a" x="17" y="74">\</text><text class="a" x="23" y="74">\</text><text class="a" x="29" y="74">\</text><text class="a" x="35" y="74">\</text><text class="a" x="41" y="74">\</text><text class="a" x="47" y="74">\</text><text class="a" x="53" y="74">\</text><text class="a" x="59" y="74">\</text><text class="b" x="65" y="74">&lt;</text><text class="b" x="71" y="74">(</text><text class="b" x="77" y="74">:</text><text class="b" x="83" y="74">)</text><text class="b" x="89" y="74">&gt;</text><text class="a" x="95" y="74">\</text><text class="a" x="101" y="74">\</text><text class="a" x="107" y="74">\</text><text class="a" x="113" y="74">\</text><text class="a" x="119" y="74">\</text><text class="a" x="125" y="74">\</text><text class="a" x="131" y="74">\</text><text class="a" x="137" y="74">\</text><text class="a" x="143" y="74">\</text><text class="a" x="11" y="86">\</text><text class="a" x="17" y="86">\</text><text class="a" x="23" y="86">\</text><text class="a" x="29" y="86">\</text><text class="a" x="35" y="86">\</text><text class="a" x="41" y="86">\</text><text class="a" x="47" y="86">\</text><text class="a" x="53" y="86">\</text><text class="a" x="59" y="86">\</text><text class="b" x="65" y="86">_</text><text class="b" x="71" y="86">|</text><text class="a" x="77" y="86">\</text><text class="b" x="83" y="86">|</text><text class="b" x="89" y="86">_</text><text class="a" x="95" y="86">\</text><text class="a" x="101" y="86">\</text><text class="a" x="107" y="86">\</text><text class="a" x="113" y="86">\</text><text class="a" x="119" y="86">\</text><text class="a" x="125" y="86">\</text><text class="a" x="131" y="86">\</text><text class="a" x="137" y="86">\</text><text class="a" x="143" y="86">\</text><text class="a" x="11" y="98">\</text><text class="a" x="17" y="98">\</text><text class="a" x="23" y="98">\</text><text class="a" x="29" y="98">\</text><text class="a" x="35" y="98">\</text><text class="a" x="41" y="98">\</text><text class="a" x="47" y="98">\</text><text class="a" x="53" y="98">\</text><text class="a" x="59" y="98">\</text><text class="a" x="65" y="98">\</text><text class="a" x="71" y="98">\</text><text class="a" x="77" y="98">\</text><text class="a" x="83" y="98">\</text><text class="a" x="89" y="98">\</text><text class="a" x="95" y="98">\</text><text class="a" x="101" y="98">\</text><text class="a" x="107" y="98">\</text><text class="a" x="113" y="98">\</text><text class="a" x="119" y="98">\</text><text class="a" x="125" y="98">\</text><text class="a" x="131" y="98">\</text><text class="a" x="137" y="98">\</text><text class="a" x="143" y="98">\</text><text class="a" x="11" y="110">\</text><text class="a" x="17" y="110">\</text><text class="a" x="23" y="110">\</text><text class="a" x="29" y="110">\</text><text class="a" x="35" y="110">\</text><text class="a" x="41" y="110">\</text><text class="a" x="47" y="110">\</text><text class="a" x="53" y="110">\</text><text class="a" x="59" y="110">\</text><text class="a" x="65" y="110">\</text><text class="a" x="71" y="110">\</text><text class="a" x="77" y="110">\</text><text class="a" x="83" y="110">\</text><text class="a" x="89" y="110">\</text><text class="a" x="95" y="110">\</text><text class="a" x="101" y="110">\</text><text class="a" x="107" y="110">\</text><text class="a" x="113" y="110">\</text><text class="a" x="119" y="110">\</text><text class="a" x="125" y="110">\</text><text class="a" x="131" y="110">\</text><text class="a" x="137" y="110">\</text><text class="a" x="143" y="110">\</text><text class="a" x="11" y="122">\</text><text class="a" x="17" y="122">\</text><text class="a" x="23" y="122">\</text><text class="a" x="29" y="122">\</text><text class="a" x="35" y="122">\</text><text class="a" x="41" y="122">\</text><text class="a" x="47" y="122">\</text><text class="a" x="53" y="122">\</text><text class="a" x="59" y="122">\</text><text class="a" x="65" y="122">\</text><text class="a" x="71" y="122">\</text><text class="a" x="77" y="122">\</text><text class="a" x="83" y="122">\</text><text class="a" x="89" y="122">\</text><text class="a" x="95" y="122">\</text><text class="a" x="101" y="122">\</text><text class="a" x="107" y="122">\</text><text class="a" x="113" y="122">\</text><text class="a" x="119" y="122">\</text><text class="a" x="125" y="122">\</text><text class="a" x="131" y="122">\</text><text class="a" x="137" y="122">\</text><text class="a" x="143" y="122">\</text><text class="a" x="11" y="134">\</text><text class="a" x="17" y="134">\</text><text class="a" x="23" y="134">\</text><text class="a" x="29" y="134">\</text><text class="a" x="35" y="134">\</text><text class="a" x="41" y="134">\</text><text class="a" x="47" y="134">\</text><text class="a" x="53" y="134">\</text><text class="a" x="59" y="134">\</text><text class="a" x="65" y="134">\</text><text class="a" x="71" y="134">\</text><text class="a" x="77" y="134">\</text><text class="a" x="83" y="134">\</text><text class="a" x="89" y="134">\</text><text class="a" x="95" y="134">\</text><text class="a" x="101" y="134">\</text><text class="a" x="107" y="134">\</text><text class="a" x="113" y="134">\</text><text class="a" x="119" y="134">C</text><text class="a" x="125" y="134">H</text><text class="a" x="131" y="134">A</text><text class="a" x="137" y="134">I</text><text class="a" x="143" y="134">N</text></svg>